<?xml version="1.0" encoding="UTF-8" standalone="no"?>
<!-- Created with Inkscape (http://www.inkscape.org/) -->

<svg
   width="141.5919mm"
   height="122.80626mm"
   viewBox="0 0 501.70361 435.14028"
   id="svg2"
   version="1.1"
   xmlns:xlink="http://www.w3.org/1999/xlink"
   xmlns="http://www.w3.org/2000/svg"
   xmlns:svg="http://www.w3.org/2000/svg"
   xmlns:rdf="http://www.w3.org/1999/02/22-rdf-syntax-ns#"
   xmlns:cc="http://creativecommons.org/ns#"
   xmlns:dc="http://purl.org/dc/elements/1.1/">
  <defs
     id="defs4">
    <linearGradient
       xlink:href="#linearGradient4706"
       gradientUnits="userSpaceOnUse"
       gradientTransform="translate(70.650339,-1055.1511)"
       x1="200.59668"
       y1="351.41116"
       x2="290.08701"
       y2="506.18814"
       id="linearGradient6415" />
    <linearGradient
       id="linearGradient4706">
      <stop
         style="stop-color:#929292;stop-opacity:1"
         offset="0"
         id="stop5564-1" />
      <stop
         id="stop5566-1"
         offset="0.24345198"
         style="stop-color:#a7a7a7;stop-opacity:1" />
      <stop
         style="stop-color:#adadad;stop-opacity:1"
         offset="1"
         id="stop5568-1" />
    </linearGradient>
    <linearGradient
       xlink:href="#linearGradient4789"
       gradientUnits="userSpaceOnUse"
       gradientTransform="translate(864.69589,-1491.3405)"
       x1="-584.19934"
       y1="782.33563"
       x2="-496.29703"
       y2="937.71399"
       id="linearGradient3722" />
    <linearGradient
       id="linearGradient4789">
      <stop
         style="stop-color:#5c5c5c;stop-opacity:1"
         offset="0"
         id="stop5055-1" />
      <stop
         id="stop5057-1"
         offset="0.23168644"
         style="stop-color:#696969;stop-opacity:1" />
      <stop
         style="stop-color:#757575;stop-opacity:1"
         offset="1"
         id="stop5059-1" />
    </linearGradient>
  </defs>
  <metadata
     id="metadata7">
    <rdf:RDF>
      <cc:Work
         rdf:about="">
        <dc:format>image/svg+xml</dc:format>
        <dc:type
           rdf:resource="http://purl.org/dc/dcmitype/StillImage" />
      </cc:Work>
    </rdf:RDF>
  </metadata>
  <g
     id="g437"
     style="display:inline;opacity:1">
    <g
       id="layer3"
       style="display:inline;opacity:1;mix-blend-mode:normal"
       transform="translate(-156.33871,933.1905)">
      <path
         id="path3336-6"
         d="m 309.54892,-710.38827 122.19683,211.67512 -56.15706,0.5268 -32.6236,-56.8692 -32.85645,56.5653 -27.90237,-0.011 -14.29086,-24.6896 46.81047,-80.4901 -33.22946,-57.8257 z"
         style="opacity:1;fill:url(#linearGradient6415);fill-opacity:1;fill-rule:evenodd;stroke:none;stroke-width:3;stroke-linecap:butt;stroke-linejoin:round;stroke-miterlimit:4;stroke-dasharray:none;stroke-opacity:1" />
      <use
         height="100%"
         width="100%"
         transform="rotate(60,407.11155,-715.78724)"
         id="use3439-6"
         xlink:href="#path3336-6"
         y="0"
         x="0" />
      <use
         height="100%"
         width="100%"
         transform="rotate(-60,407.31177,-715.70016)"
         id="use3445-0"
         xlink:href="#path3336-6"
         y="0"
         x="0" />
      <use
         height="100%"
         width="100%"
         transform="rotate(180,407.41868,-715.7565)"
         id="use3449-5"
         xlink:href="#path3336-6"
         y="0"
         x="0" />
      <path
         style="color:#000000;clip-rule:nonzero;display:inline;overflow:visible;visibility:visible;opacity:1;isolation:auto;mix-blend-mode:normal;color-interpolation:sRGB;color-interpolation-filters:linearRGB;solid-color:#000000;solid-opacity:1;fill:url(#linearGradient3722);fill-opacity:1;fill-rule:evenodd;stroke:none;stroke-width:3;stroke-linecap:butt;stroke-linejoin:round;stroke-miterlimit:4;stroke-dasharray:none;stroke-dashoffset:0;stroke-opacity:1;color-rendering:auto;image-rendering:auto;shape-rendering:auto;text-rendering:auto;enable-background:accumulate"
         d="m 309.54892,-710.38827 122.19683,211.67512 -56.15706,0.5268 -32.6236,-56.8692 -32.85645,56.5653 -27.90237,-0.011 -14.29086,-24.6896 46.81047,-80.4901 -33.22946,-57.8256 z"
         id="path4260-0" />
      <use
         height="100%"
         width="100%"
         transform="rotate(120,407.33916,-716.08356)"
         id="use4354-5"
         xlink:href="#path4260-0"
         y="0"
         x="0"
         style="display:inline" />
      <use
         height="100%"
         width="100%"
         transform="rotate(-120,407.28823,-715.86995)"
         id="use4362-2"
         xlink:href="#path4260-0"
         y="0"
         x="0"
         style="display:inline" />
    </g>
    <g
       id="layer1-2"
       style="display:inline;opacity:1;mix-blend-mode:normal"
       transform="translate(0.03649185,16.757249)">
      <path
         d="m 371.85697,288.05893 c -10.17186,16.26215 -23.41186,31.6207 -39.60388,44.729 26.37101,-7.69335 48.85181,-21.88275 63.74817,-39.07836 1.80849,-2.09088 3.02474,-3.751 4.57214,-5.64881 z"
         style="display:inline;opacity:1;mix-blend-mode:normal;fill:#969696;fill-opacity:1;stroke-width:10.8971"
         id="path41" />
      <path
         d="m 379.57121,152.49863 c 5.24877,8.21178 9.69783,15.19034 12.75695,23.05481 4.63249,11.90931 5.78238,25.78879 2.50306,49.07592 l 25.15869,0.0787 c -0.0191,-3.80413 0.003,-7.87875 0.18127,-12.47498 0.4686,-12.67333 3.17019,-23.75721 6.60279,-33.51013 l 0.82763,-2.34192 2.46277,-0.32776 c 0.35848,-0.0464 0.68455,-0.12426 1.04187,-0.17211 l -8.76526,-0.022 27.88696,-47.99377 c -1.29814,-0.6646 -2.5663,-1.34615 -3.91479,-1.9812 l -1.76514,-0.83863 -0.44677,-1.90796 C 440.28053,106.72272 430.59628,94.136262 417.30192,87.153778 l -15.18311,26.295772 a 12.880384,13.131017 17.73 0 1 3.60169,-1.19751 12.880384,13.131017 17.73 0 1 3.86902,0.59876 12.880384,13.131017 17.73 0 1 8.28186,16.42273 12.880384,13.131017 17.73 0 1 -16.27991,8.58581 12.880384,13.131017 17.73 0 1 -8.33313,-9.06738 z"
         style="display:inline;opacity:1;mix-blend-mode:normal;fill:#969696;fill-opacity:1;stroke-width:10.8971"
         id="path39" />
      <path
         d="m 361.39982,119.34006 c 1.7469,4.50726 3.76327,9.05955 6.33362,13.67065 3.06743,5.49503 5.9202,10.13866 8.63525,14.44519 l 0.59326,-1.03271 z"
         style="display:inline;opacity:1;mix-blend-mode:normal;fill:#969696;fill-opacity:1;stroke-width:10.8971"
         id="path38" />
      <path
         d="m 374.98075,160.44907 -70.45349,122.01416 56.35803,-0.14649 21.55152,-37.1521 c 1.3155,-4.59829 2.42832,-9.18202 3.18969,-13.7091 4.68576,-27.77673 3.67287,-41.38695 -0.82763,-52.97058 -2.28593,-5.87496 -5.64679,-11.44177 -9.81812,-18.03589 z"
         style="display:inline;opacity:1;mix-blend-mode:normal;fill:#969696;fill-opacity:1;stroke-width:10.8971"
         id="path62" />
      <path
         d="m 71.280187,112.79953 223.643193,0.011 -28.30628,-48.735356 -45.43213,-0.09155 c -2.74127,8.20624 -3.27512,16.682672 -1.77246,26.037598 l 0.88257,5.524292 -5.5133,-0.904541 C 175.25689,88.240985 126.57453,91.284726 71.280187,112.79953 Z"
         style="display:inline;opacity:1;mix-blend-mode:normal;fill:#969696;fill-opacity:1;stroke-width:10.8971"
         id="path61" />
      <path
         d="m 124.78177,244.40292 72.49512,-125.55175 -56.35986,0.14648 -12.60315,21.72913 c 6.63495,2.99182 13.36598,6.04822 20.37781,9.41345 l 10.84167,5.22034 -11.79016,2.39685 c -11.31064,2.29214 -23.15065,5.67064 -35.31372,10.35095 l -4.97498,8.57849 -14.474483,-0.0458 C 70.392114,187.73587 47.104585,203.55854 24.324621,225.31235 L 79.463171,225.457 67.7078,245.68649 c 14.5875,-0.85829 29.806279,-1.54018 45.65552,-1.51428 3.83338,0.006 7.61534,0.14171 11.41845,0.23071 z"
         style="display:inline;opacity:1;mix-blend-mode:normal;fill:#969696;fill-opacity:1;stroke-width:10.8971"
         id="path57" />
      <path
         d="m 216.00309,314.88388 c -3.21508,3.33254 -6.9953,6.53953 -11.22437,9.22852 -11.19134,7.11575 -25.35813,13.31655 -40.10193,18.5907 -9.75638,3.49499 -19.51056,6.39264 -28.97827,8.99231 l -19.7113,33.89282 c 20.943,0.13431 40.50911,-1.28994 58.75122,-3.81775 l 11.84876,-20.39612 9.66064,16.83838 c 17.74555,-3.42633 34.00621,-7.8016 49.07593,-12.53723 z"
         style="display:inline;opacity:1;mix-blend-mode:normal;fill:#969696;fill-opacity:1;stroke-width:10.8971"
         id="path53" />
      <path
         d="m 178.38407,249.71848 -25.21362,-43.67615 -22.08618,38.48694 c 16.77087,0.62072 32.94825,2.16596 47.2998,5.18921 z"
         style="display:inline;opacity:1;mix-blend-mode:normal;fill:#969696;fill-opacity:1;stroke-width:10.8971"
         id="path52" />
      <path
         d="m 304.55839,341.99265 c 24.25596,-14.11175 43.7397,-33.13927 57.66723,-53.93372 l -132.82287,-0.005 c -0.2117,3.73791 -1.23052,7.07932 -2.72095,11.10534 -1.20602,3.25777 -3.6791,7.30397 -6.95984,11.39649 l 15.23621,26.22986 66.69433,0.1355 z"
         style="display:inline;opacity:1;mix-blend-mode:normal;fill:#969696;fill-opacity:1;stroke-width:10.8971"
         id="path49" />
      <path
         d="m 303.08805,18.348235 c -5.33359,-1.577991 -10.80837,-2.443356 -16.33118,-2.481079 -11.86457,-0.06484 -23.95421,3.453713 -35.15625,10.874634 l 97.30957,168.56323 22.89185,-39.88952 c -3.36301,-5.30005 -7.00679,-11.10308 -11.11816,-18.47168 -7.03955,-12.64064 -10.97327,-25.02979 -13.40332,-36.56983 l -0.52369,-2.429807 1.60584,-1.290894 -4.62891,-8.054809 28.93067,-49.747926 c -10.9958,-3.365349 -24.23949,-3.809014 -38.42835,-2.290649 l -1.93908,0.195923 -1.36231,-1.384278 c -2.6985,-2.749903 -5.56234,-5.151415 -8.5144,-7.324218 l -6.92688,11.925659 z m -9.25781,27.529907 h 0.011 c 6.91965,-0.10897 13.03236,4.69601 14.68873,11.550293 1.96147,8.063859 -2.88835,16.171098 -10.81055,18.08899 A 14.896349,14.896349 0 0 1 279.8483,64.369964 c -1.96148,-8.063868 2.87736,-16.171097 10.79957,-18.08899 a 14.493156,14.493156 0 0 1 3.18237,-0.402832 z"
         style="display:inline;opacity:1;mix-blend-mode:normal;fill:#969696;fill-opacity:1;stroke-width:10.8971"
         id="path35" />
      <path
         d="m 450.81022,288.51853 0.25635,-0.45594 -40.15869,-0.002 c -2.61801,3.43143 -5.37989,6.94705 -8.8147,10.91309 -19.61482,22.66593 -50.69385,40.18886 -86.61072,46.11694 -2.21267,1.41494 -4.52854,2.72373 -6.82251,4.05579 l 7.93213,13.84094 c 19.56395,3.75187 38.75395,2.87471 55.2063,-1.95923 l -13.91602,-24.25049 55.66956,0.15381 c 5.18274,-7.03158 9.16415,-15.61068 17.08008,-27.73681 a 93.715141,93.715141 0 0 1 19.0924,-21.1084 c 0.36615,0.1597 0.71994,0.27465 1.08582,0.43213 z"
         style="display:inline;opacity:1;mix-blend-mode:normal;fill:#969696;fill-opacity:1;stroke-width:10.8971"
         id="path47" />
      <path
         d="m 488.9163,222.39548 c -4.55355,-15.09521 -16.5082,-27.64738 -34.57214,-33.55957 -7.69336,-2.51724 -14.60168,-3.70496 -20.96558,-3.57422 v 0.011 h -0.12085 a 100.59122,100.59122 0 0 0 -5.03357,27.23145 c -0.16902,4.47395 -0.1748,8.47248 -0.13916,12.22961 l 59.37744,0.18677 z"
         style="display:inline;opacity:1;mix-blend-mode:normal;fill:#969696;fill-opacity:1;stroke-width:10.8971"
         id="path45" />
    </g>
  </g>
</svg>
