<svg xmlns="http://www.w3.org/2000/svg" viewBox="0 0 501.7 435.1" xmlns:v="https://vecta.io/nano"><defs><linearGradient id="A" x1="271.3" x2="360.8" y1="-703.8" y2="-549" gradientUnits="userSpaceOnUse"><stop offset="0" stop-color="#929292"/><stop offset=".2" stop-color="#a7a7a7"/><stop offset="1" stop-color="#adadad"/></linearGradient><linearGradient id="B" x1="280.5" x2="368.4" y1="-709" y2="-553.6" gradientUnits="userSpaceOnUse"><stop offset="0" stop-color="#5c5c5c"/><stop offset=".2" stop-color="#696969"/><stop offset="1" stop-color="#757575"/></linearGradient><path id="C" d="M309.5-710.4l122.2 211.7-56.1.5L343-555l-33 56.5h-27.9L268-523.2l46.8-80.5-33.2-57.8z"/></defs><g transform="translate(-156.3 933.2)"><use id="D" href="#C" fill="url(#A)" fill-opacity="1" fill-rule="evenodd" stroke="none" opacity="1"/><use href="#D" transform="rotate(60 407.1 -715.8)"/><use href="#D" transform="rotate(300 407.3 -715.7)"/><use href="#D" transform="rotate(180 407.4 -715.8)"/><use id="E" href="#C" fill="url(#B)" fill-opacity="1" fill-rule="evenodd" stroke="none" opacity="1" text-rendering="auto"/><use href="#E" transform="rotate(120 407.3 -716)"/><use href="#E" transform="rotate(240 407.3 -715.9)"/></g><path d="M371.9 304.8a181.5 181.5 0 0 1-39.6 44.8 134.5 134.5 0 0 0 63.7-39l4.6-5.7zm7.7-135.5c5.2 8.2 9.7 15.2 12.7 23 4.7 12 5.8 25.8 2.5 49.1l25.2.1c0-3.8 0-7.9.2-12.5.4-12.6 3.1-23.7 6.6-33.5l.8-2.3 2.5-.3 1-.2h-8.8l28-48-4-2-1.8-.9-.4-1.9a53.1 53.1 0 0 0-26.8-36l-15.2 26.3a12.88 12.88 0 0 1 3.6-1.1 12.72 12.72 0 0 1 3.9.6c6.784 2.169 10.499 9.51 8.3 16.4-1.047 3.324-3.356 6.1-6.415 7.714s-6.616 1.933-9.885.886c-4.118-1.408-7.239-4.829-8.3-9.1zm-18.2-33.2c1.7 4.5 3.8 9.1 6.3 13.7 3.1 5.5 6 10.1 8.7 14.5l.6-1zm13.6 41.1l-70.5 122H361l21.5-37.2c1.4-4.6 2.5-9.2 3.2-13.7 4.7-27.8 3.7-41.4-.8-53a107 107 0 0 0-9.8-18zM71.3 129.6h223.6l-28.3-48.7-45.4-.1a53.4 53.4 0 0 0-1.8 26l.9 5.5-5.5-.9c-39.5-6.4-88.2-3.3-143.5 18.2zm53.5 131.6l72.5-125.5-56.4.1-12.6 21.7 20.4 9.4 10.8 5.3-11.8 2.4a220.2 220.2 0 0 0-35.3 10.3l-5 8.6H93c-22.6 11-45.9 26.9-68.7 48.6l55.2.2-11.8 20.2c14.6-.9 29.8-1.6 45.7-1.5l11.4.2zm91.2 70.5c-3.2 3.3-7 6.5-11.2 9.2a206 206 0 0 1-40.1 18.6c-9.8 3.5-19.5 6.4-29 9L116 402.4c21 .1 40.5-1.3 58.7-3.8l11.9-20.4 9.6 16.8c17.8-3.4 34-7.8 49.1-12.5zm-37.6-65.2l-25.2-43.7-22.2 38.5c16.8.6 33 2.2 47.3 5.2zm126.2 92.3a176.2 176.2 0 0 0 57.6-54H229.4c-.2 3.8-1.2 7.1-2.7 11.2a44.3 44.3 0 0 1-7 11.4l15.3 26.2 66.7.1zM303 35.1a59 59 0 0 0-16.2-2.4c-12-.1-24 3.4-35.2 10.8l97.3 168.6 22.9-39.9c-3.4-5.3-7-11-11.1-18.5-7-12.6-11-25-13.4-36.5l-.5-2.5 1.6-1.2-4.7-8.1 29-49.7a98.2 98.2 0 0 0-38.5-2.3l-1.9.2-1.4-1.4a69.8 69.8 0 0 0-8.5-7.4l-7 12zm-9.1 27.7c7-.1 13 4.7 14.7 11.5 2 8-2.9 16.2-10.8 18.1-8.007 1.874-16.019-3.094-17.9-11.1-2-8 3-16.2 10.8-18.1a14.5 14.5 0 0 1 3.2-.4zm156.9 242.5l.3-.4h-40.2a147 147 0 0 1-95.4 57l-6.8 4 7.9 13.9c19.6 3.7 38.7 2.9 55.2-2l-14-24.2 55.8.1c5.1-7 9.1-15.6 17-27.7a93.7 93.7 0 0 1 19.1-21.1l1.1.4zm38.2-66.1a51.3 51.3 0 0 0-34.7-33.6 63.4 63.4 0 0 0-21-3.5 100.6 100.6 0 0 0-5 27.2c-.2 4.5-.3 8.5-.2 12.2l59.4.2z" fill="#969696"/></svg>