<svg xmlns="http://www.w3.org/2000/svg" xmlns:xlink="http://www.w3.org/1999/xlink" viewBox="0 0 501.7 435.1"><defs><linearGradient xlink:href="#a" id="c" x1="200.6" x2="290.1" y1="351.4" y2="506.2" gradientTransform="translate(70.7 -1055.2)" gradientUnits="userSpaceOnUse"/><linearGradient id="a"><stop offset="0" stop-color="#929292"/><stop offset=".2" stop-color="#a7a7a7"/><stop offset="1" stop-color="#adadad"/></linearGradient><linearGradient xlink:href="#b" id="e" x1="-584.2" x2="-496.3" y1="782.3" y2="937.7" gradientTransform="translate(864.7 -1491.3)" gradientUnits="userSpaceOnUse"/><linearGradient id="b"><stop offset="0" stop-color="#5c5c5c"/><stop offset=".2" stop-color="#696969"/><stop offset="1" stop-color="#757575"/></linearGradient></defs><g style="mix-blend-mode:normal" transform="translate(-156.3 933.2)"><path id="d" fill="url(#c)" fill-opacity="1" fill-rule="evenodd" stroke="none" stroke-dasharray="none" stroke-linecap="butt" stroke-linejoin="round" stroke-miterlimit="4" stroke-opacity="1" stroke-width="3" d="m309.5-710.4 122.2 211.7-56.1.5L343-555 310-498.5h-27.9L268-523.2l46.8-80.5-33.2-57.8z" opacity="1"/><use xlink:href="#d" width="100%" height="100%" transform="rotate(60 407.1 -715.8)"/><use xlink:href="#d" width="100%" height="100%" transform="rotate(-60 407.3 -715.7)"/><use xlink:href="#d" width="100%" height="100%" transform="rotate(180 407.4 -715.8)"/><path id="f" fill="url(#e)" fill-opacity="1" fill-rule="evenodd" stroke="none" stroke-dasharray="none" stroke-dashoffset="0" stroke-linecap="butt" stroke-linejoin="round" stroke-miterlimit="4" stroke-opacity="1" stroke-width="3" d="m309.5-710.4 122.2 211.7-56.1.5L343-555 310-498.5h-27.9L268-523.2l46.8-80.5-33.2-57.8z" clip-rule="nonzero" color="#000" color-interpolation="sRGB" color-interpolation-filters="linearRGB" color-rendering="auto" display="inline" image-rendering="auto" opacity="1" overflow="visible" shape-rendering="auto" style="isolation:auto;mix-blend-mode:normal;solid-color:#000;solid-opacity:1" text-rendering="auto" visibility="visible"/><use xlink:href="#f" width="100%" height="100%" transform="rotate(120 407.3 -716)"/><use xlink:href="#f" width="100%" height="100%" transform="rotate(-120 407.3 -715.9)"/></g><g fill="#969696" style="mix-blend-mode:normal"><path d="M371.9 288a181.5 181.5 0 0 1-39.6 44.8 134.5 134.5 0 0 0 63.7-39l4.6-5.7zM379.6 152.5c5.2 8.2 9.7 15.2 12.7 23 4.7 12 5.8 25.8 2.5 49.1l25.2.1c0-3.8 0-7.9.2-12.5.4-12.6 3.1-23.7 6.6-33.5l.8-2.3 2.5-.3 1-.2h-8.8l28-48-4-2-1.8-.9-.4-1.9a53.1 53.1 0 0 0-26.8-36l-15.2 26.3a12.9 13.1 17.7 0 1 3.6-1.1 12.9 13.1 17.7 0 1 3.9.6 12.9 13.1 17.7 0 1 8.3 16.4 12.9 13.1 17.7 0 1-16.3 8.6 12.9 13.1 17.7 0 1-8.3-9.1zM361.4 119.3c1.7 4.5 3.8 9.1 6.3 13.7 3.1 5.5 6 10.1 8.7 14.5l.6-1z" style="mix-blend-mode:normal" transform="translate(0 16.8)"/><path d="m375 160.4-70.5 122H361l21.5-37.2c1.4-4.6 2.5-9.2 3.2-13.7 4.7-27.8 3.7-41.4-.8-53a107 107 0 0 0-9.8-18zM71.3 112.8h223.6l-28.3-48.7-45.4-.1a53.4 53.4 0 0 0-1.8 26l.9 5.5-5.5-.9c-39.5-6.4-88.2-3.3-143.5 18.2ZM124.8 244.4l72.5-125.5-56.4.1-12.6 21.7c6.6 3 13.4 6 20.4 9.4l10.8 5.3-11.8 2.4a220.2 220.2 0 0 0-35.3 10.3l-5 8.6H93c-22.6 11-45.9 26.9-68.7 48.6l55.2.2-11.8 20.2c14.6-.9 29.8-1.6 45.7-1.5l11.4.2zM216 314.9c-3.2 3.3-7 6.5-11.2 9.2a206 206 0 0 1-40.1 18.6c-9.8 3.5-19.5 6.4-29 9L116 385.6c21 .1 40.5-1.3 58.7-3.8l11.9-20.4 9.6 16.8c17.8-3.4 34-7.8 49.1-12.5zM178.4 249.7 153.2 206 131 244.5c16.8.6 33 2.2 47.3 5.2zM304.6 342a176.2 176.2 0 0 0 57.6-54H229.4c-.2 3.8-1.2 7.1-2.7 11.2a44.3 44.3 0 0 1-7 11.4l15.3 26.2 66.7.1zM303 18.3a59 59 0 0 0-16.2-2.4c-12-.1-24 3.4-35.2 10.8l97.3 168.6 22.9-39.9c-3.4-5.3-7-11-11.1-18.5-7-12.6-11-25-13.4-36.5l-.5-2.5 1.6-1.2-4.7-8.1 29-49.7a98.2 98.2 0 0 0-38.5-2.3l-1.9.2-1.4-1.4a69.8 69.8 0 0 0-8.5-7.4l-7 12zM293.9 46c7-.1 13 4.7 14.7 11.5 2 8-2.9 16.2-10.8 18.1a14.9 14.9 0 0 1-17.9-11.1c-2-8 3-16.2 10.8-18.1a14.5 14.5 0 0 1 3.2-.4zM450.8 288.5l.3-.4h-40.2a147 147 0 0 1-95.4 57l-6.8 4 7.9 13.9c19.6 3.7 38.7 2.9 55.2-2l-14-24.2 55.8.1c5.1-7 9.1-15.6 17-27.7a93.7 93.7 0 0 1 19.1-21.1l1.1.4zM489 222.4a51.3 51.3 0 0 0-34.7-33.6 63.4 63.4 0 0 0-21-3.5 100.6 100.6 0 0 0-5 27.2c-.2 4.5-.3 8.5-.2 12.2l59.4.2z" style="mix-blend-mode:normal" transform="translate(0 16.8)"/></g></svg>